<svg width="500" height="457" viewBox="0 0 500 457" fill="none" xmlns="http://www.w3.org/2000/svg">
<path d="M336.103 27.7205H252.197V28.92H336.103V27.7205Z" fill="#2C6BFF"/>
<path d="M313.329 28.6201H312.13V39.716H313.329V28.6201Z" fill="#2C6BFF"/>
<path d="M276.77 28.6201H275.571V39.716H276.77V28.6201Z" fill="#2C6BFF"/>
<path d="M378.657 85.2991H294.75V86.4986H378.657V85.2991Z" fill="#2C6BFF"/>
<path d="M318.723 74.5034H317.524V85.5994H318.723V74.5034Z" fill="#2C6BFF"/>
<path d="M355.283 74.5034H354.084V85.5994H355.283V74.5034Z" fill="#2C6BFF"/>
<path d="M490.133 112.289H406.227V113.489H490.133V112.289Z" fill="#2C6BFF"/>
<path d="M430.199 101.494H429V112.59H430.199V101.494Z" fill="#2C6BFF"/>
<path d="M466.759 101.494H465.56V112.59H466.759V101.494Z" fill="#2C6BFF"/>
<path d="M481.742 390.587H397.835V391.787H481.742V390.587Z" fill="#2C6BFF"/>
<path d="M421.809 379.791H420.61V390.887H421.809V379.791Z" fill="#2C6BFF"/>
<path d="M458.368 379.791H457.169V390.887H458.368V379.791Z" fill="#2C6BFF"/>
<path d="M338.501 198.058H254.594V199.257H338.501V198.058Z" fill="#2C6BFF"/>
<path d="M278.568 187.262H277.37V198.358H278.568V187.262Z" fill="#2C6BFF"/>
<path d="M315.127 187.262H313.929V198.358H315.127V187.262Z" fill="#2C6BFF"/>
<path d="M364.872 342.605H280.965V343.804H364.872V342.605Z" fill="#2C6BFF"/>
<path d="M304.939 331.809H303.74V342.905H304.939V331.809Z" fill="#2C6BFF"/>
<path d="M341.498 331.809H340.3V342.905H341.498V331.809Z" fill="#2C6BFF"/>
<path d="M499.123 298.821H415.216V300.02H499.123V298.821Z" fill="#2C6BFF"/>
<path d="M439.189 288.025H437.991V299.121H439.189V288.025Z" fill="#2C6BFF"/>
<path d="M475.749 288.025H474.55V299.121H475.749V288.025Z" fill="#2C6BFF"/>
<path d="M380.381 249.77C383.979 250.469 387.463 248.116 388.162 244.516C388.862 240.915 386.512 237.43 382.914 236.731C379.317 236.032 375.833 238.385 375.133 241.985C374.434 245.586 376.783 249.071 380.381 249.77Z" fill="#3F3D56"/>
<path d="M361.374 43.2954C361.374 43.2954 370.135 68.25 364.743 72.0892C359.352 75.9284 382.94 107.282 382.94 107.282L411.246 99.6032L395.745 73.3689C395.745 73.3689 393.723 47.1346 393.723 43.2954C393.723 39.4562 361.374 43.2954 361.374 43.2954Z" fill="#FFD6BA"/>
<path opacity="0.1" d="M361.374 43.2954C361.374 43.2954 370.135 68.25 364.743 72.0892C359.352 75.9284 382.94 107.282 382.94 107.282L411.246 99.6032L395.745 73.3689C395.745 73.3689 393.723 47.1346 393.723 43.2954C393.723 39.4562 361.374 43.2954 361.374 43.2954Z" fill="black"/>
<path d="M346.667 221.177C346.667 221.177 344.11 253.17 346.667 269.807C349.225 286.443 353.061 332.513 353.061 332.513C353.061 332.513 353.061 419.535 367.128 420.814C381.194 422.094 391.424 423.374 392.703 418.255C393.982 413.136 386.309 410.576 390.146 408.017C393.982 405.458 395.261 396.499 390.146 386.262C385.031 376.024 390.146 272.366 390.146 272.366L414.442 337.632C414.442 337.632 417 391.381 419.557 399.059C422.115 406.737 417 420.814 425.951 422.094C434.903 423.374 445.133 415.695 450.248 413.136C455.363 410.576 442.575 410.576 445.133 409.297C447.69 408.017 455.363 404.178 452.805 402.898C450.248 401.618 447.69 340.192 447.69 340.192C447.69 340.192 440.657 209.02 431.706 203.901C422.754 198.782 417 207.599 417 207.599L346.667 221.177Z" fill="#201F30"/>
<path d="M369.685 415.695V425.933C369.685 425.933 358.176 453.763 369.685 453.763C381.194 453.763 390.145 456.646 390.145 452.807V418.255L369.685 415.695Z" fill="#201F30"/>
<path d="M441.821 414.683L443.501 424.782C443.501 424.782 459.42 450.347 448.067 452.235C436.714 454.122 428.357 458.435 427.727 454.648L422.058 420.564L441.821 414.683Z" fill="#201F30"/>
<path d="M368.583 60.6385C380.836 64.0249 393.517 56.8299 396.908 44.568C400.299 32.306 393.114 19.6205 380.862 16.234C368.609 12.8476 355.927 20.0426 352.536 32.3045C349.146 44.5665 356.33 57.252 368.583 60.6385Z" fill="#FFD6BA"/>
<path d="M372.243 81.6875C372.243 81.6875 378.637 100.883 388.867 97.0442L399.097 93.205L417 216.058C417 216.058 402.934 236.534 382.473 223.737C362.013 210.94 372.243 81.6875 372.243 81.6875Z" fill="white"/>
<path d="M390.146 77.848L395.9 65.6907C395.9 65.6907 429.787 81.6872 434.903 86.8061C440.018 91.925 440.018 99.6033 440.018 99.6033L431.066 131.596C431.066 131.596 433.624 201.981 433.624 204.541C433.624 207.1 442.575 221.177 436.181 216.058C429.787 210.939 428.509 205.82 423.394 213.499C418.278 221.177 406.77 230.135 406.77 230.135L390.146 77.848Z" fill="#F47458"/>
<path d="M434.903 169.988L431.066 205.821C431.066 205.821 408.048 226.296 413.164 227.576C418.279 228.856 420.836 223.737 420.836 223.737C420.836 223.737 429.788 232.695 434.903 227.576C440.018 222.457 452.806 173.827 452.806 173.827L434.903 169.988Z" fill="#FFD6BA"/>
<path d="M383.872 7.18886C379.002 5.65357 373.763 4.11186 368.883 5.61814C366.607 6.42194 364.48 7.59882 362.59 9.10063C357.138 13.0939 351.871 18.5583 351.618 25.3124L353.548 25.1139C353.08 26.8061 352.242 28.3732 351.095 29.7019C351.538 29.0557 352.04 30.4371 351.621 31.0985L347.959 36.8697C351.434 36.5841 354.711 40.0127 354.271 43.474C356.514 36.2152 359.594 28.0319 366.712 25.3859C370.302 24.0515 374.271 24.4383 378.076 24.8593C381.587 25.2477 385.253 25.7061 388.166 27.7032C391.079 29.7003 392.909 33.7528 391.259 36.8786C392.885 36.7771 394.259 38.2713 394.609 39.8631C394.958 41.455 394.543 43.1043 394.131 44.6814C395.404 46.2378 397.819 44.5133 398.97 42.863C401.67 38.9894 404.279 34.7925 404.702 30.0895C405.124 25.3864 402.661 20.0995 398.118 18.8274C398.837 18.3731 399.353 17.6566 399.554 16.8294L395.893 15.4764C396.882 15.6046 397.885 15.3847 398.73 14.8544C396.767 16.0958 386.282 7.94859 383.872 7.18886Z" fill="#201F30"/>
<path d="M378.637 74.009C378.637 74.009 368.227 63.8002 364.481 64.4255C360.734 65.0509 355.619 74.009 355.619 74.009C355.619 74.009 324.929 84.2467 326.207 94.4845C327.486 104.722 341.553 154.632 341.553 154.632C341.553 154.632 353.061 214.779 342.831 221.177C332.601 227.576 391.425 244.212 392.703 236.534C393.982 228.855 396.54 152.072 392.703 140.555C388.867 129.037 378.637 74.009 378.637 74.009Z" fill="#F47458"/>
<path d="M423.394 94.4846H439.206C439.206 94.4846 450.248 143.114 451.527 148.233C452.806 153.352 455.363 177.667 454.085 177.667C452.806 177.667 427.23 172.548 427.23 176.387L423.394 94.4846Z" fill="#F47458"/>
<path d="M422.858 223.053H362.326C356.419 195.859 355.925 169.585 362.326 144.482H422.858C413.09 169.133 412.479 195.228 422.858 223.053Z" fill="#FFCEAE"/>
<path d="M337.716 185.579L355.619 193.257C355.619 193.257 390.145 198.376 390.145 184.299C390.145 170.222 355.619 177.9 355.619 177.9L344.109 174.218L337.716 185.579Z" fill="#FFD6BA"/>
<path d="M341.552 86.8062L326.206 90.6453L314.698 158.471C314.698 158.471 310.861 176.387 317.255 177.666C323.649 178.946 341.552 189.184 341.552 189.184C341.552 189.184 344.109 169.988 349.224 169.988L336.437 159.75L344.109 114.96L341.552 86.8062Z" fill="#F47458"/>
<path d="M124.539 217.851H40.6323V219.05H124.539V217.851Z" fill="#2C6BFF"/>
<path d="M64.6059 207.054H63.4072V218.15H64.6059V207.054Z" fill="#2C6BFF"/>
<path d="M101.165 207.054H99.9668V218.15H101.165V207.054Z" fill="#2C6BFF"/>
<path d="M153.907 40.3159H70V41.5155H153.907V40.3159Z" fill="#2C6BFF"/>
<path d="M131.132 41.2156H129.933V52.3115H131.132V41.2156Z" fill="#2C6BFF"/>
<path d="M94.5727 41.2156H93.374V52.3115H94.5727V41.2156Z" fill="#2C6BFF"/>
<path d="M254.709 158.472H170.802V159.672H254.709V158.472Z" fill="#2C6BFF"/>
<path d="M231.934 159.372H230.736V170.468H231.934V159.372Z" fill="#2C6BFF"/>
<path d="M195.375 159.372H194.176V170.468H195.375V159.372Z" fill="#2C6BFF"/>
<path d="M95.7715 157.873H11.8647V159.072H95.7715V157.873Z" fill="#2C6BFF"/>
<path d="M72.997 158.772H71.7983V169.868H72.997V158.772Z" fill="#2C6BFF"/>
<path d="M36.4369 158.772H35.2383V169.868H36.4369V158.772Z" fill="#2C6BFF"/>
<path d="M196.459 97.8945H112.552V99.0941H196.459V97.8945Z" fill="#2C6BFF"/>
<path d="M136.526 87.0986H135.328V98.1945H136.526V87.0986Z" fill="#2C6BFF"/>
<path d="M173.085 87.0986H171.887V98.1945H173.085V87.0986Z" fill="#2C6BFF"/>
<path d="M83.9067 410.316H0V411.515H83.9067V410.316Z" fill="#2C6BFF"/>
<path d="M61.1323 411.216H59.9336V422.312H61.1323V411.216Z" fill="#2C6BFF"/>
<path d="M24.5727 411.216H23.374V422.312H24.5727V411.216Z" fill="#2C6BFF"/>
<path fill-rule="evenodd" clip-rule="evenodd" d="M135.176 318.05L115.043 338.183L112.167 358.316L103.538 349.688L97.7859 355.44C96.1975 357.029 93.622 357.029 92.0336 355.44L63.2717 326.678C61.6832 325.09 61.6832 322.514 63.2717 320.926L100.662 283.535C102.251 281.947 104.826 281.947 106.414 283.535L135.176 312.297C136.765 313.886 136.765 316.461 135.176 318.05Z" stroke="white" stroke-width="2"/>
<path d="M81.9668 328.116L107.852 302.231" stroke="white" stroke-width="2"/>
<path d="M90.5957 336.745L110.729 316.612" stroke="white" stroke-width="2"/>
<path fill-rule="evenodd" clip-rule="evenodd" d="M214.189 250.773L202.943 252.382L204.549 241.133L233.47 212.212C236.132 209.55 240.449 209.55 243.111 212.212C245.773 214.874 245.773 219.19 243.111 221.852L214.189 250.773Z" stroke="white" stroke-width="2"/>
<path d="M230.256 215.426L239.896 225.067" stroke="white" stroke-width="1.5"/>
<path d="M231.474 251.119V273.841C231.474 276.351 229.439 278.386 226.929 278.386H181.484C178.975 278.386 176.94 276.351 176.94 273.841V228.396C176.94 225.886 178.975 223.852 181.484 223.852H204.207" stroke="white" stroke-width="2"/>
<path d="M217.171 328.006L206.918 317.753L201.059 323.612L242.072 364.624L247.93 358.765L237.677 348.512L237.677 342.653L223.03 328.006L217.171 328.006Z" stroke="white" stroke-width="2"/>
<path d="M198.13 333.814L231.869 367.553L193.685 405.737C192.904 406.518 191.638 406.518 190.857 405.737L159.946 374.827C159.165 374.046 159.165 372.779 159.946 371.998L198.13 333.814Z" stroke="white" stroke-width="2"/>
</svg>
